<svg width="1250" height="94" viewBox="0 0 1250 94" fill="none" xmlns="http://www.w3.org/2000/svg">
<path d="M0 66C0 61.5817 3.58172 58 8 58C12.4183 58 16 61.5817 16 66C16 70.4183 12.4183 74 8 74C3.58172 74 0 70.4183 0 66ZM86 66L87.0607 67.0607L86.6213 67.5H86V66ZM130 22L128.939 20.9393L129.379 20.5H130V22ZM8 64.5H86V67.5H8V64.5ZM84.9393 64.9393L128.939 20.9393L131.061 23.0607L87.0607 67.0607L84.9393 64.9393ZM130 20.5H1250V23.5H130V20.5Z" fill="url(#paint0_linear_5_2)"/>
<path d="M0 46C0 41.5817 3.58172 38 8 38C12.4183 38 16 41.5817 16 46C16 50.4183 12.4183 54 8 54C3.58172 54 0 50.4183 0 46ZM86 46L87.0607 47.0607L86.6213 47.5H86V46ZM130 2L128.939 0.93934L129.379 0.5H130V2ZM8 44.5H86V47.5H8V44.5ZM84.9393 44.9393L128.939 0.93934L131.061 3.06066L87.0607 47.0607L84.9393 44.9393ZM130 0.5H1183.5V3.5H130V0.5Z" fill="url(#paint1_linear_5_2)"/>
<path d="M0 86C0 81.5817 3.58172 78 8 78C12.4183 78 16 81.5817 16 86C16 90.4183 12.4183 94 8 94C3.58172 94 0 90.4183 0 86ZM86 86L87.0607 87.0607L86.6213 87.5H86V86ZM130 42L128.939 40.9393L129.379 40.5H130V42ZM8 84.5H86V87.5H8V84.5ZM84.9393 84.9393L128.939 40.9393L131.061 43.0607L87.0607 87.0607L84.9393 84.9393ZM130 40.5H1250V43.5H130V40.5Z" fill="url(#paint2_linear_5_2)"/>
<defs>
<linearGradient id="paint0_linear_5_2" x1="892.783" y1="32.3413" x2="-349.217" y2="32.3413" gradientUnits="userSpaceOnUse">
<stop stop-color="#E62243"/>
<stop offset="1" stop-color="#C1267D"/>
</linearGradient>
<linearGradient id="paint1_linear_5_2" x1="845.409" y1="12.3413" x2="-330.091" y2="12.3413" gradientUnits="userSpaceOnUse">
<stop stop-color="#E62243"/>
<stop offset="1" stop-color="#C1267D"/>
</linearGradient>
<linearGradient id="paint2_linear_5_2" x1="892.783" y1="52.3413" x2="-349.217" y2="52.3413" gradientUnits="userSpaceOnUse">
<stop stop-color="#E62243"/>
<stop offset="1" stop-color="#C1267D"/>
</linearGradient>
</defs>
</svg>
